<svg width="35" height="35" viewBox="0 0 35 35" fill="none" xmlns="http://www.w3.org/2000/svg">
<path d="M35 17.5C31.5067 11.4613 24.978 7.39825 17.5 7.39825C10.022 7.39825 3.4933 11.4613 0 17.5C3.4933 23.5387 10.022 27.6017 17.5 27.6017C24.978 27.6017 31.5067 23.5387 35 17.5Z" fill="#69C9FF" fill-opacity="0.44"/>
<path d="M17.5 27.5C23.0229 27.5 27.5 23.0229 27.5 17.5C27.5 11.9772 23.0229 7.5 17.5 7.5C11.9772 7.5 7.5 11.9772 7.5 17.5C7.5 23.0229 11.9772 27.5 17.5 27.5Z" fill="#69C9FF"/>
<path d="M17.5 22.8846C20.4738 22.8846 22.8846 20.4738 22.8846 17.5C22.8846 14.5262 20.4738 12.1154 17.5 12.1154C14.5261 12.1154 12.1154 14.5262 12.1154 17.5C12.1154 20.4738 14.5261 22.8846 17.5 22.8846Z" fill="black" fill-opacity="0.63"/>
<path d="M5.19231 9.23078C4.87369 9.23078 4.61536 8.97252 4.61536 8.65382V5.19231C4.61536 4.87362 4.87369 4.61536 5.19231 4.61536H8.65382C8.97245 4.61536 9.23078 4.87362 9.23078 5.19231C9.23078 5.511 8.97245 5.76926 8.65382 5.76926H5.76926V8.65389C5.76926 8.97251 5.51093 9.23078 5.19231 9.23078Z" fill="#69C9FF"/>
<path d="M29.8077 9.23078C29.489 9.23078 29.2307 8.97252 29.2307 8.65382V5.76926H26.3461C26.0274 5.76926 25.7692 5.511 25.7692 5.19231C25.7692 4.87362 26.0274 4.61536 26.3461 4.61536H29.8076C30.1263 4.61536 30.3846 4.87362 30.3846 5.19231V8.65382C30.3847 8.97252 30.1264 9.23078 29.8077 9.23078Z" fill="#69C9FF"/>
<path d="M8.65382 30.3846H5.19231C4.87369 30.3846 4.61536 30.1264 4.61536 29.8077V26.3462C4.61536 26.0275 4.87369 25.7692 5.19231 25.7692C5.51093 25.7692 5.76926 26.0275 5.76926 26.3462V29.2308H8.65389C8.97251 29.2308 9.23084 29.4891 9.23084 29.8078C9.23084 30.1265 8.97245 30.3846 8.65382 30.3846Z" fill="#69C9FF"/>
<path d="M29.8078 30.3847H26.3462C26.0275 30.3847 25.7693 30.1264 25.7693 29.8077C25.7693 29.489 26.0275 29.2307 26.3462 29.2307H29.2309V26.3461C29.2309 26.0274 29.4891 25.7692 29.8078 25.7692C30.1265 25.7692 30.3848 26.0274 30.3848 26.3461V29.8076C30.3847 30.1264 30.1264 30.3847 29.8078 30.3847Z" fill="#69C9FF"/>
</svg>
